<?xml version="1.0" encoding="utf-8"?>
<!-- Generator: Adobe Illustrator 15.1.0, SVG Export Plug-In . SVG Version: 6.00 Build 0)  -->
<!DOCTYPE svg PUBLIC "-//W3C//DTD SVG 1.1//EN" "http://www.w3.org/Graphics/SVG/1.1/DTD/svg11.dtd">
<svg version="1.1" id="Layer_1" xmlns="http://www.w3.org/2000/svg" xmlns:xlink="http://www.w3.org/1999/xlink" x="0px" y="0px"
	 width="750px" height="600px" viewBox="0 0 750 600" enable-background="new 0 0 750 600" xml:space="preserve">
<g id="_x23_000000ff">
</g>
<g id="_x23_ffb7b7ff">
	<path fill="#F05044" d="M280.87,107.25c52.19-5.6,104.899-5.84,157.21-1.7c29.31,2.56,58.53,6.5,87.29,12.73l-0.64,0.46
		c-5.671,4.04-11.12,8.48-17.37,11.62c-3.67,1.85-7.9,0.67-11.82,0.7c-0.84-0.7-1.67-1.42-2.49-2.12
		c-2.88-3.08-7.28-3.48-11.14-4.46c-7.83-1.2-16.18-1.15-23.601,1.88c-2.029,0.62-3.93,3.41-1.729,5.04
		c6.58,3.98,14.59,4.69,22.13,4.62c1.29,0.11,2.6,0.22,3.91,0.31c1.91,0.39,3.81,0.85,5.71,1.36l-0.07,0.91
		c-8.99,4.29-18.75,6.58-28.229,9.47c-2.261,0.61-4.61,1.65-6.95,0.85c-16.6-4.11-33.561-6.81-50.62-8.08
		c-7.431-0.59-14.97-1.7-22.38-0.5c-1.96,0.49-5.69,1.74-4.01,4.41c1.939,2.27,4.82,3.32,7.22,5c1.55,0.51,1.72,3.04,0.17,3.64
		c-3.96,2.5-8.95,2.14-13.44,2.67c-5.9-0.06-12.68,0.33-17.57-3.54c-0.98-5.73,7.17-5,9.53-8.75c0.75-1.88-1.32-2.59-2.7-3.09
		c-4.63-1.25-9.5-0.99-14.25-0.88c-21.24,1.05-42.37,3.98-63.14,8.49c-3.12,0.54-6.3,2.25-9.48,1.16
		c-10.32-3.13-20.75-6.04-30.56-10.58c0.59-0.46,1.77-1.37,2.36-1.82c-1.45-0.02-2.91-0.02-4.36-0.01
		c3.94-0.58,7.92-0.55,11.89-0.68c6.61-0.09,13.4-0.5,19.64-2.89c2.31-0.8,6.19-3.57,3.28-5.99c-9.21-4.6-20.11-4.21-29.88-1.72
		c-2.81,0.92-5.75,1.99-7.65,4.38c-0.15,0.14-0.43,0.42-0.58,0.56c-4.88,1.15-10.47,1.38-14.89-1.36
		c-4.91-2.75-9.12-6.52-13.53-9.97c0.07-0.14,0.21-0.43,0.29-0.57C232.3,113.44,256.57,110.06,280.87,107.25z"/>
</g>
<g id="_x23_6a4426ff">
	<path fill="#6A4426" d="M507.36,130.36c6.25-3.14,11.699-7.58,17.37-11.62c1.26,4.27-0.32,8.7-0.54,13.02
		c-3.57,3.13-8.58,3.47-13.101,3.66c-5.39-0.08-11.51-0.27-15.55-4.36C499.46,131.03,503.69,132.21,507.36,130.36z"/>
	<path fill="#6A4426" d="M208.13,119.37c4.41,3.45,8.62,7.22,13.53,9.97c4.42,2.74,10.01,2.51,14.89,1.36
		c-1.58,1.99-3.87,3.08-6.35,3.44c-7.08,1.48-15.33,2.93-21.72-1.44C209.11,128.27,207.89,123.82,208.13,119.37z"/>
	<path fill="#6A4426" d="M244.78,125.76c9.77-2.49,20.67-2.88,29.88,1.72c2.91,2.42-0.97,5.19-3.28,5.99
		c-6.24,2.39-13.03,2.8-19.64,2.89c3.66-0.77,7.48-1.4,10.57-3.69c-1.84-2.7-5.1-4.09-8.22-4.69c-5.71-0.79-11.6,0.09-16.96,2.16
		C239.03,127.75,241.97,126.68,244.78,125.76z"/>
	<path fill="#6A4426" d="M458.31,126.36c7.421-3.03,15.771-3.08,23.601-1.88c3.859,0.98,8.26,1.38,11.14,4.46
		c-6.91-1.29-14.189-2.5-20.97,0.04c-1.48,0.66-3.84,1.68-2.93,3.7c2.779,2.05,6.319,2.42,9.56,3.34
		c-7.54,0.07-15.55-0.64-22.13-4.62C454.38,129.77,456.28,126.98,458.31,126.36z"/>
	<path fill="#6A4426" d="M230.11,138.99c3.09-1.29,6.46-1.57,9.74-1.95c1.45-0.01,2.91-0.01,4.36,0.01
		c-0.59,0.45-1.77,1.36-2.36,1.82c9.81,4.54,20.24,7.45,30.56,10.58c3.18,1.09,6.36-0.62,9.48-1.16c20.77-4.51,41.9-7.44,63.14-8.49
		c4.75-0.11,9.62-0.37,14.25,0.88c1.38,0.5,3.45,1.21,2.7,3.09c-2.36,3.75-10.51,3.02-9.53,8.75c4.89,3.87,11.67,3.48,17.57,3.54
		c4.49-0.53,9.48-0.17,13.44-2.67c1.55-0.6,1.38-3.13-0.17-3.64c-2.399-1.68-5.28-2.73-7.22-5c-1.68-2.67,2.05-3.92,4.01-4.41
		c7.41-1.2,14.949-0.09,22.38,0.5c17.06,1.27,34.021,3.97,50.62,8.08c2.34,0.8,4.689-0.24,6.95-0.85
		c9.479-2.89,19.239-5.18,28.229-9.47c-0.069,2.95-0.029,5.9-0.09,8.85c-6.21,2.34-12.74,3.7-18.95,6.03
		c-0.479,1.53-0.79,3.11-1.109,4.69c-20.721-6.83-42.25-11.01-63.971-12.93c-7.31-0.54-14.669-1.65-21.999-0.94
		c-0.65,5.13,6.619,5.08,8.709,8.87c0.32,2.95-2.51,4.73-4.949,5.51c-7.721,2.56-15.99,2.24-24.01,1.96
		c-5.15-0.49-10.93-0.93-14.76-4.86c-1.41-1.14-1.47-3.59-0.17-4.83c2.48-2.89,6.6-3.31,9.36-5.81c-2.49-1.56-5.49-1.21-8.28-1.19
		c-21.11,0.95-42.18,3.56-62.77,8.34c-16.64,4.13-33.32,9.07-48.31,17.58c-6.63,3.91-13.25,8.49-17.51,15.04
		c14.72,2.75,29.24-4.98,44.02-2.24c3.82,0.87,8.72,1.43,10.61,5.41c1.04,3.69-1.91,7.34-5.17,8.77
		c-10.94,5.36-23.62,4.98-35.4,3.39c-6.7-1.14-13.55-4.91-20.37-2.32c-3.01,1.1-2.33,4.56-2.36,7.09
		c-0.14,7.93,5.47,14.23,10.5,19.73c7.14,6.92,15.78,12.13,24.86,16.07c16.53,7.81,34.43,12.21,52.35,15.5
		c11.77,1.99,23.57,4.49,35.57,4.35c3.21,0.05,6.35-0.79,9.26-2.11c0.02,3.35,0.44,6.68,0.52,10.03
		c-11.25,2.34-22.66-0.37-33.91-1.31c-21.61-3.11-43.25-7.43-63.53-15.72c-2.09-0.73-4.21-2.36-6.49-1.38
		c-17.61,4.97-34.83,11.23-51.81,18.02c-4.3,1.59-8.56,3.34-12.44,5.8c0.04,0.51,0.13,1.54,0.17,2.05c0.08,0.53,0.22,1.58,0.29,2.1
		c-5.3-0.52-11.03-0.58-15.58-3.75c-1.64-1.22-3.32-3.64-1.83-5.6c1.97-2.19,4.73-3.44,7.34-4.69
		c20.08-8.21,40.57-15.47,61.46-21.35c-9.79-5.08-19.28-11.24-26.34-19.85c-4.38-5.29-6.37-12.17-7.09-18.89
		c-0.66-3.79,2.4-7.15,5.91-8.04c4.22-1.15,8.61-1.72,12.99-1.64c6.56-0.01,12.51,3.38,19.02,3.81c6.35,0.37,12.88,0.58,19.08-1.06
		c3.9-1.03,6.58-4.36,7.73-8.09c-3.59-5.59-11.08-4.51-16.76-4.2c-11.85,1.4-24.01,5.43-35.91,2.19c-2.36-0.44-3.06-3.58-0.99-4.9
		c15.59-14.31,35.79-22.2,55.85-27.96c-6.87-1.92-13.65-4.14-20.29-6.76c-4.3-1.76-8.88-2.95-12.84-5.44
		C227.98,140.56,228.72,139.34,230.11,138.99z"/>
	<path fill="#6A4426" d="M461.26,185.33c7.87-3.22,16.51-2.11,24.78-1.96c8.67,0.14,16.95,4.98,25.68,2.81
		c0.09,0.98,0.17,1.96,0.25,2.95c-7.109-0.65-13.84-3.61-21.029-3.58c-5.271,0.01-10.82-0.66-15.83,1.34
		c-2.311,0.85-3.13,3.27-2.971,5.54c-0.25,2.94-0.729,5.85-1.01,8.79c-5.149-1.08-10.899-2.81-13.899-7.48
		C455.07,190.37,457.97,186.43,461.26,185.33z"/>
	<path fill="#6A4426" d="M517.55,211.65c0.51,1.38,0.98,2.81,0.641,4.3c-0.631,5.56-1.36,11.11-1.53,16.71
		c-5.05,3.82-10.7,6.68-16.16,9.85c-0.7,3.49-1.38,6.99-2.01,10.5c-4.471-1-8.891-3.46-13.431-3.24
		c-24.439,10.38-50.729,15.39-76.979,18.56c-9.41,0.77-18.99,2.44-28.359,0.46c0.569-3.25,0.92-6.54,0.659-9.83
		c7.17,3.09,15.181,1.67,22.7,1.09c28.2-3.76,56.9-8.6,82.62-21.36C498.1,232.34,511.3,224.73,517.55,211.65z"/>
	<path fill="#6A4426" d="M337.66,235.78c8.89-5.01,19.37-5.21,29.3-5.1c6.54,0.15,13.39,0.8,19.19,4.08
		c3.34,1.81,5.77,5.38,5.8,9.23c-0.511,4.14-4.21,6.77-7.55,8.7c-0.051-0.91-0.131-2.74-0.18-3.66c0.109-2.96-0.621-6.32-3.561-7.71
		c-7.22-3.9-15.76-2.94-23.66-2.89c-4.86,0.64-10.39,0.8-14.12,4.43c-1.59,1.24-1.85,3.31-2.1,5.17c-0.01,0.97-0.03,2.91-0.04,3.87
		c-2.93-2.53-6.5-5.02-7.48-8.99C332.49,239.69,335.13,237.19,337.66,235.78z"/>
	<path fill="#6A4426" d="M15.2,271.79c3.54,6.92,7.45,13.7,12.48,19.65c8.26,10.27,18.69,18.46,29.29,26.17
		c18.64-10.771,37.32-21.541,56.75-30.851c8.97-4.58,19.34-6.18,29.33-5.25c2.88,0.38,6.16,0.86,8.07,3.29
		c1.81,2.54,1.35,5.87,0.56,8.7c-0.25-0.02-0.76-0.04-1.01-0.05c-1.39-0.96-2.74-2.24-4.55-2.16c-5.5-0.38-11.11,0.61-16.23,2.63
		c-7.21,3.72-14.4,7.5-21.6,11.26c-12.66,6.801-24.8,14.521-37.06,21.99c-0.08,0.3-0.24,0.9-0.31,1.19
		c-0.74,3.899,0.59,7.779,1.32,11.59c2.39,9.2,4.61,18.45,6.94,27.68c-2.68,1.76-5.38,3.48-8.07,5.22
		c-5.37-4.58-10.71-9.21-16.02-13.85c-4.88-5.81-10.66-10.9-14.62-17.44c-2.41-3.869-5.32-7.439-7.38-11.52
		c-3.17-7.32-6.51-14.6-8.71-22.29c-2.71-9.6-5.47-19.18-8.18-28.78C15.5,276.64,15.1,274.23,15.2,271.79z"/>
	<path fill="#6A4426" d="M195.77,288.39c3.31,5.29,2.54,12.08,3.85,18.05c-6.5,3.06-13.49,5.04-20.64,5.729
		c-8.96,1.311-18.6-0.18-26.02-5.61c0.22-4.06-1.75-7.85-1.51-11.859c3.44,5.5,10.46,7.3,16.59,6.87
		C178.43,300.88,189.58,297.32,195.77,288.39z"/>
</g>
<g id="_x23_ffffa0ff">
	<path fill="#FCEF46" d="M99.57,152.58c30.43-13.78,62.56-23.41,95.11-30.72c4.14,4.15,8.86,7.69,13.8,10.84
		c6.39,4.37,14.64,2.92,21.72,1.44c2.48-0.36,4.77-1.45,6.35-3.44c0.15-0.14,0.43-0.42,0.58-0.56c5.36-2.07,11.25-2.95,16.96-2.16
		c3.12,0.6,6.38,1.99,8.22,4.69c-3.09,2.29-6.91,2.92-10.57,3.69c-3.97,0.13-7.95,0.1-11.89,0.68c-3.28,0.38-6.65,0.66-9.74,1.95
		c-1.39,0.35-2.13,1.57-2.24,2.93c3.96,2.49,8.54,3.68,12.84,5.44c6.64,2.62,13.42,4.84,20.29,6.76
		c-20.06,5.76-40.26,13.65-55.85,27.96c-2.07,1.32-1.37,4.46,0.99,4.9c11.9,3.24,24.06-0.79,35.91-2.19
		c5.68-0.31,13.17-1.39,16.76,4.2c-1.15,3.73-3.83,7.06-7.73,8.09c-6.2,1.64-12.73,1.43-19.08,1.06
		c-6.51-0.43-12.46-3.82-19.02-3.81c-4.38-0.08-8.77,0.49-12.99,1.64c-3.51,0.89-6.57,4.25-5.91,8.04
		c0.72,6.72,2.71,13.6,7.09,18.89c7.06,8.61,16.55,14.77,26.34,19.85c-20.89,5.88-41.38,13.14-61.46,21.35
		c-2.61,1.25-5.37,2.5-7.34,4.69c-1.49,1.96,0.19,4.38,1.83,5.6c4.55,3.17,10.28,3.23,15.58,3.75c5.99,0.44,12.49,0.44,17.57,4.12
		c1.78,1.34,3.58,3.97,2.08,6.13c-6.19,8.93-17.34,12.49-27.73,13.18c-6.13,0.43-13.15-1.37-16.59-6.87c0.06-0.3,0.17-0.9,0.23-1.2
		c0.79-2.83,1.25-6.16-0.56-8.7c-1.91-2.43-5.19-2.91-8.07-3.29c-9.99-0.93-20.36,0.67-29.33,5.25
		c-19.43,9.31-38.11,20.08-56.75,30.851c-10.6-7.71-21.03-15.9-29.29-26.17c-5.03-5.95-8.94-12.73-12.48-19.65
		c-4.66-11.12-7.17-23.99-3.37-35.73c1.31-4.48,2.17-9.1,3.74-13.49c3.34-5.63,6.56-11.35,10.12-16.84
		c4.59-5.07,9.13-10.2,13.91-15.08c6.08-4.97,12.14-9.98,18.35-14.79c6.53-4.13,13.07-8.27,19.68-12.27
		C84.91,159.86,92.26,156.26,99.57,152.58z"/>
</g>
<g id="_x23_a8fea7ff">
	<path fill="#64BC46" d="M524.19,131.76c4.829-3.28,9.68-6.54,13.979-10.53c38.72,8.9,77.32,20.22,112.5,39.06
		c11.22,6.1,22.061,12.97,31.88,21.16c14.15,10.71,25.63,25.06,32.521,41.44c4.16,14.09,6.3,30.03-0.4,43.71
		c-6.25,13.79-15.2,26.4-26.72,36.291c-5.391,4.629-11.3,8.59-16.91,12.93c-15.55-8.82-30.96-17.92-47.1-25.65
		c-10.431-5.13-21.061-11.23-33.021-11.37c-5.33-0.02-11.71-0.92-15.88,3.18c-3.43,2.98-0.28,7.78-1.44,11.46
		c-2.33,4.07-7.239,5.62-11.64,5.99c-7.12,0.69-14.1-1.33-20.71-3.74c-4.71-1.78-9.26-4.62-11.64-9.22
		c-0.12-6.27,6.739-8.51,11.819-9.24c0.57-0.09,1.71-0.26,2.28-0.35c6.59-0.75,13.59-0.37,19.69-3.39
		c2.279-1.16,4.79-4.15,2.89-6.67c-2.12-2.78-5.51-4.12-8.65-5.35c-10.06-3.57-20.069-7.25-30.13-10.8
		c-8.99-2.78-17.99-5.49-27.01-8.16c5.46-3.17,11.11-6.03,16.16-9.85c9.18-6.58,17.939-15.9,18.74-27.74
		c0.609-3.77-1.931-7.68-5.73-8.38c-7.85-1.42-16-1.39-23.83,0.21c-5.58,1.01-11.06,3.02-16.82,2.54
		c-6.069-0.14-13.569-0.99-16.88-6.86c-0.159-2.27,0.66-4.69,2.971-5.54c5.01-2,10.56-1.33,15.83-1.34
		c7.189-0.03,13.92,2.93,21.029,3.58c4.391,0.25,9.03,0.73,13.23-0.91c1.96-0.66,2.26-3.11,1.1-4.62
		c-3.39-5.23-9.03-8.3-13.89-11.99c-13.25-8.43-28.15-13.88-43.19-18.13c6.21-2.33,12.74-3.69,18.95-6.03
		c4.83-2.18,10.32-3.06,14.57-6.37c-5.38-5.05-13.24-4.85-20.12-4.75c-1.311-0.09-2.62-0.2-3.91-0.31
		c-3.24-0.92-6.78-1.29-9.56-3.34c-0.91-2.02,1.449-3.04,2.93-3.7c6.78-2.54,14.06-1.33,20.97-0.04c0.82,0.7,1.65,1.42,2.49,2.12
		c4.04,4.09,10.16,4.28,15.55,4.36C515.61,135.23,520.62,134.89,524.19,131.76z"/>
</g>
<g id="_x23_174a16ff">
	<path fill="#174A16" d="M482.62,136.33c6.88-0.1,14.74-0.3,20.12,4.75c-4.25,3.31-9.74,4.19-14.57,6.37
		c0.061-2.95,0.021-5.9,0.09-8.85l0.07-0.91C486.43,137.18,484.53,136.72,482.62,136.33z"/>
	<path fill="#174A16" d="M468.11,158.17c0.319-1.58,0.63-3.16,1.109-4.69c15.04,4.25,29.94,9.7,43.19,18.13
		c4.859,3.69,10.5,6.76,13.89,11.99c1.16,1.51,0.86,3.96-1.1,4.62c-4.2,1.64-8.84,1.16-13.23,0.91c-0.08-0.99-0.16-1.97-0.25-2.95
		c-1.13-4.49-5.01-7.59-8.38-10.48C492.83,167.71,480.46,162.61,468.11,158.17z"/>
	<path fill="#174A16" d="M472.14,192.43c3.311,5.87,10.811,6.72,16.88,6.86c5.761,0.48,11.24-1.53,16.82-2.54
		c7.83-1.6,15.98-1.63,23.83-0.21c3.8,0.7,6.34,4.61,5.73,8.38c-0.801,11.84-9.561,21.16-18.74,27.74
		c0.17-5.6,0.899-11.15,1.53-16.71c0.34-1.49-0.131-2.92-0.641-4.3c1.12-3.44,1.7-7.06,1.681-10.67
		c-2.03-4.06-7.62-2.27-11.261-2.54c-12.04,2.47-24.58,5.8-36.84,2.78C471.41,198.28,471.89,195.37,472.14,192.43z"/>
	<path fill="#174A16" d="M498.49,253.01c0.63-3.51,1.31-7.01,2.01-10.5c9.02,2.67,18.02,5.38,27.01,8.16
		c10.061,3.55,20.07,7.23,30.13,10.8c3.141,1.23,6.53,2.57,8.65,5.35c1.9,2.52-0.61,5.51-2.89,6.67
		c-6.101,3.02-13.101,2.64-19.69,3.39c2.46-0.65,4.94-1.59,6.3-3.9c-1.16-1.26-2.41-2.48-4.06-3.04
		C530.35,263.68,514.51,258.06,498.49,253.01z"/>
	<path fill="#174A16" d="M687.95,302.891c11.52-9.891,20.47-22.5,26.72-36.291c0.5,3.23-0.57,6.36-1.439,9.42
		c-2.65,9.76-5.051,19.58-7.86,29.291c-2.4,6.6-4.68,13.249-7.26,19.77c-6.07,13.34-16.38,24.13-26.86,34.13
		c-4.25,4.16-8.87,7.91-13.55,11.57c-2.9-1.58-5.521-3.601-8.38-5.24c2.59-13.17,7.1-26.03,8.029-39.47l0.061-0.46
		c-17.09-10.03-33.98-20.45-51.771-29.23c-6.319-3-12.489-7.04-19.659-7.46c-3.36-0.14-6.921-0.37-10.08,0.96
		c-3.2,3.24,0.76,8.06-1.381,11.771c-3.329,5.83-10.439,7.46-16.539,8.58c-10.58,0.989-21.471-0.851-31.171-5.19
		c0.86-6.2,1.221-12.49,2.801-18.57c2.38,4.6,6.93,7.44,11.64,9.22c6.61,2.41,13.59,4.43,20.71,3.74c4.4-0.37,9.31-1.92,11.64-5.99
		c1.16-3.68-1.989-8.48,1.44-11.46c4.17-4.1,10.55-3.2,15.88-3.18c11.96,0.14,22.59,6.24,33.021,11.37
		c16.14,7.73,31.55,16.83,47.1,25.65C676.65,311.48,682.56,307.52,687.95,302.891z"/>
</g>
<g id="_x23_ffdeffff">
	<path fill="#EF9EC5" d="M285.27,152.29c20.59-4.78,41.66-7.39,62.77-8.34c2.79-0.02,5.79-0.37,8.28,1.19
		c-2.76,2.5-6.88,2.92-9.36,5.81c-1.3,1.24-1.24,3.69,0.17,4.83c3.83,3.93,9.61,4.37,14.76,4.86c8.02,0.28,16.29,0.6,24.01-1.96
		c2.439-0.78,5.27-2.56,4.949-5.51c-2.09-3.79-9.359-3.74-8.709-8.87c7.33-0.71,14.689,0.4,21.999,0.94
		c21.721,1.92,43.25,6.1,63.971,12.93c12.35,4.44,24.72,9.54,35.229,17.53c3.37,2.89,7.25,5.99,8.38,10.48
		c-8.729,2.17-17.01-2.67-25.68-2.81c-8.271-0.15-16.91-1.26-24.78,1.96c-3.29,1.1-6.189,5.04-4.029,8.41
		c3,4.67,8.75,6.4,13.899,7.48c12.26,3.02,24.8-0.31,36.84-2.78c3.641,0.27,9.23-1.52,11.261,2.54c0.02,3.61-0.561,7.23-1.681,10.67
		c-6.25,13.08-19.45,20.69-31.85,27.04c-25.72,12.76-54.42,17.6-82.62,21.36c-7.52,0.58-15.53,2-22.7-1.09
		c-0.18-0.49-0.54-1.47-0.72-1.96c1.14-1.86,2.9-3.19,4.74-4.31c3.34-1.93,7.039-4.56,7.55-8.7c-0.03-3.85-2.46-7.42-5.8-9.23
		c-5.801-3.28-12.65-3.93-19.19-4.08c-9.93-0.11-20.41,0.09-29.3,5.1c-2.53,1.41-5.17,3.91-4.4,7.13c0.98,3.97,4.55,6.46,7.48,8.99
		c2.14,1.54,2.72,4.15,2.58,6.65c-2.91,1.32-6.05,2.16-9.26,2.11c-12,0.14-23.8-2.36-35.57-4.35c-17.92-3.29-35.82-7.69-52.35-15.5
		c-9.08-3.94-17.72-9.15-24.86-16.07c-5.03-5.5-10.64-11.8-10.5-19.73c0.03-2.53-0.65-5.99,2.36-7.09
		c6.82-2.59,13.67,1.18,20.37,2.32c11.78,1.59,24.46,1.97,35.4-3.39c3.26-1.43,6.21-5.08,5.17-8.77c-1.89-3.98-6.79-4.54-10.61-5.41
		c-14.78-2.74-29.3,4.99-44.02,2.24c4.26-6.55,10.88-11.13,17.51-15.04C251.95,161.36,268.63,156.42,285.27,152.29z"/>
</g>
<g id="_x23_73c1d2ff">
	<path fill="#16CFD8" d="M342.88,242.86c3.73-3.63,9.26-3.79,14.12-4.43c7.9-0.05,16.44-1.01,23.66,2.89
		c2.939,1.39,3.67,4.75,3.561,7.71c-2.82,5.1-9.071,6.6-12.491,11.07c-1.35,4.87,3.69,8.33,7.991,8.69
		c9.369,1.98,18.949,0.31,28.359-0.46c26.25-3.17,52.54-8.18,76.979-18.56c4.54-0.22,8.96,2.24,13.431,3.24
		c16.02,5.05,31.859,10.67,47.46,16.93c1.649,0.56,2.899,1.78,4.06,3.04c-1.359,2.31-3.84,3.25-6.3,3.9
		c-0.57,0.09-1.71,0.26-2.28,0.35c-9.5,0.48-20.199,0.64-27.58,7.57c-3.01,2.27-3.54,6.77-1.369,9.8
		c3.449,4.97,9.069,7.77,14.329,10.44c9.7,4.34,20.591,6.18,31.171,5.19c6.1-1.12,13.21-2.75,16.539-8.58
		c2.141-3.71-1.819-8.53,1.381-11.771c3.159-1.33,6.72-1.1,10.08-0.96c7.17,0.42,13.34,4.46,19.659,7.46
		c17.79,8.78,34.681,19.2,51.771,29.23l-0.061,0.46c-6.25,4.39-12.939,8.069-19.779,11.449c-29.141,15.57-60.771,25.78-92.58,34.311
		c-22.811,5.35-45.73,10.39-69,13.26c-13.66,1.68-27.25,4.03-41,4.86c-10.65,0.79-21.28,1.95-31.96,2.2
		c-14.99,0.479-29.97,1.489-44.97,1.01c-28.43,0.07-56.87-1.51-85.14-4.59c-13.39-1.03-26.59-3.54-39.87-5.45
		c-16.18-2.15-32.01-6.2-47.98-9.46c-12.38-3.391-24.71-6.97-37.03-10.55c-9.68-3.391-19.34-6.83-28.95-10.37
		c-8.49-3.76-16.91-7.681-25.34-11.55c-7.75-4.03-15.12-8.74-22.83-12.83c0.07-0.29,0.23-0.891,0.31-1.19
		c12.26-7.47,24.4-15.189,37.06-21.99c7.2-3.76,14.39-7.54,21.6-11.26c5.12-2.02,10.73-3.01,16.23-2.63
		c1.81-0.08,3.16,1.2,4.55,2.16c0.13,4.36-2.09,10.06,2.29,13.109c7.42,5.431,17.06,6.921,26.02,5.61
		c7.15-0.689,14.14-2.67,20.64-5.729c5.82-2.581,11.91-6.081,14.63-12.15c1.57-3.4-1.07-6.84-3.35-9.16
		c-6.24-5.4-14.96-6.16-22.86-6.39c-4.12-0.52-8.68-0.11-12.21-2.7c-0.04-0.51-0.13-1.54-0.17-2.05c3.88-2.46,8.14-4.21,12.44-5.8
		c16.98-6.79,34.2-13.05,51.81-18.02c2.28-0.98,4.4,0.65,6.49,1.38c20.28,8.29,41.92,12.61,63.53,15.72
		c11.25,0.94,22.66,3.65,33.91,1.31c3.24-0.74,7.24-2.4,7.77-6.15c0.72-2.74-1.12-5.26-2.9-7.13c-2.57-2.5-5.38-4.74-7.93-7.27
		C341.03,246.17,341.29,244.1,342.88,242.86z"/>
</g>
<g id="_x23_133740ff">
	<path fill="#133740" d="M340.78,248.03c2.55,2.53,5.36,4.77,7.93,7.27c1.78,1.87,3.62,4.39,2.9,7.13
		c-0.53,3.75-4.53,5.41-7.77,6.15c-0.08-3.35-0.5-6.68-0.52-10.03c0.14-2.5-0.44-5.11-2.58-6.65
		C340.75,250.94,340.77,249,340.78,248.03z"/>
	<path fill="#133740" d="M371.73,260.1c3.42-4.47,9.67-5.97,12.491-11.07c0.049,0.92,0.129,2.75,0.18,3.66
		c-1.84,1.12-3.601,2.45-4.74,4.31c0.18,0.49,0.54,1.47,0.72,1.96c0.261,3.29-0.09,6.58-0.659,9.83
		C375.42,268.43,370.38,264.97,371.73,260.1z"/>
	<path fill="#133740" d="M175.83,276.04c3.53,2.59,8.09,2.18,12.21,2.7c7.9,0.23,16.62,0.99,22.86,6.39
		c2.28,2.32,4.92,5.76,3.35,9.16c-2.72,6.07-8.81,9.569-14.63,12.15c-1.31-5.97-0.54-12.76-3.85-18.05c1.5-2.16-0.3-4.79-2.08-6.13
		c-5.08-3.68-11.58-3.68-17.57-4.12C176.05,277.62,175.91,276.57,175.83,276.04z"/>
	<path fill="#133740" d="M513.85,284.8c7.381-6.93,18.08-7.09,27.58-7.57c-5.08,0.73-11.939,2.97-11.819,9.24
		c-1.58,6.08-1.94,12.37-2.801,18.57c-5.26-2.67-10.88-5.47-14.329-10.44C510.31,291.57,510.84,287.07,513.85,284.8z"/>
	<path fill="#133740" d="M150.67,293.45c0.25,0.01,0.76,0.03,1.01,0.05c-0.06,0.3-0.17,0.9-0.23,1.2
		c-0.24,4.01,1.73,7.8,1.51,11.859C148.58,303.51,150.8,297.81,150.67,293.45z"/>
	<path fill="#133740" d="M637.57,337.52c6.84-3.38,13.529-7.06,19.779-11.449c-0.93,13.439-5.439,26.3-8.029,39.47
		c-1.15,5.19-2.511,10.36-4.34,15.37c-0.37,1.17-1.58,1.75-2.431,2.53c-6.66,4.93-13.84,9.09-21.109,13.05
		c-18.381,10.71-38.271,18.46-58.141,25.88c-13.39,4.12-26.59,8.89-40.29,11.93c-15.479,4.311-31.33,7.03-47.09,10.11
		c-12.97,1.59-25.81,4.109-38.85,5.12c-10.37,0.95-20.73,1.979-31.11,2.79c-13.34,0.31-26.649,1.42-40,1.149
		c-10.62-0.17-21.25-0.189-31.87-0.43c-13.01-0.97-26.1-0.98-39.05-2.64c-12.02-1.431-24.14-2.21-36.05-4.45
		c-13.48-2.42-27.13-4.01-40.4-7.48c-11.2-2.83-22.63-4.85-33.58-8.63c-8.57-2.72-17.2-5.26-25.7-8.189
		c-8.84-3.48-17.64-7.021-26.44-10.57c-6.79-3.12-13.37-6.65-20.08-9.93c-9.05-4.16-16.94-10.32-25.45-15.41
		c-1.37-0.96-3.19-1.66-3.72-3.4c-1.9-4.77-3.13-9.76-4.44-14.71c-2.33-9.229-4.55-18.479-6.94-27.68
		c-0.73-3.811-2.06-7.69-1.32-11.59c7.71,4.09,15.08,8.8,22.83,12.83c8.43,3.869,16.85,7.79,25.34,11.55
		c9.61,3.54,19.27,6.979,28.95,10.37c12.32,3.58,24.65,7.159,37.03,10.55c15.97,3.26,31.8,7.31,47.98,9.46
		c13.28,1.91,26.48,4.42,39.87,5.45c28.27,3.08,56.71,4.66,85.14,4.59c15,0.479,29.98-0.53,44.97-1.01
		c10.68-0.25,21.31-1.41,31.96-2.2c13.75-0.83,27.34-3.181,41-4.86c23.27-2.87,46.189-7.91,69-13.26
		C576.8,363.3,608.43,353.09,637.57,337.52z"/>
</g>
</svg>
